<svg width="695" height="180" viewBox="0 0 695 180" fill="none" xmlns="http://www.w3.org/2000/svg">
<path d="M671.55 95.51H522.02C514.61 95.51 508.3 100.78 507.01 108.07L500.61 144.6C500.18 147.1 500.85 149.66 502.5 151.61C504.15 153.56 506.53 154.66 509.09 154.66H671.55C678.11 154.66 683.47 149.32 683.47 142.77V107.4C683.47 100.84 678.13 95.51 671.55 95.51Z" fill="#676B6F"/>
<path d="M671.55 97.36C677.11 97.36 681.63 101.87 681.63 107.4V142.77C681.63 148.31 677.11 152.81 671.55 152.81H509.09C507.06 152.81 505.22 151.96 503.91 150.42C502.63 148.9 502.09 146.9 502.43 144.92L508.83 108.39C509.95 102 515.5 97.36 522.01 97.36H671.54" fill="white"/>
<path d="M561.39 118.41V117.71H553.03V118.41C553.03 125.33 547.39 130.97 540.46 130.97C533.53 130.97 527.93 125.33 527.93 118.41V117.71H519.54V118.41C519.54 129.97 528.9 139.33 540.46 139.33C552.02 139.33 561.38 129.97 561.38 118.41" fill="#676B6F"/>
<path d="M546.02 116.73C546.02 119.78 543.55 122.28 540.47 122.28C537.39 122.28 534.92 119.81 534.92 116.73C534.92 113.65 537.39 111.18 540.47 111.18C543.55 111.21 546.02 113.68 546.02 116.73Z" fill="#676B6F"/>
<path d="M624.52 113.38C624.52 114.9 623.27 116.15 621.74 116.15C620.21 116.15 618.96 114.9 618.96 113.38C618.96 111.86 620.21 110.61 621.74 110.61C623.27 110.61 624.52 111.86 624.52 113.38Z" fill="#676B6F"/>
<path d="M572.06 117.74H567.55V138.72H572.06V117.74Z" fill="#676B6F"/>
<path d="M623.97 117.74H619.46V138.72H623.97V117.74Z" fill="#676B6F"/>
<path d="M603.69 117.74H599.18V138.72H603.69V117.74Z" fill="#676B6F"/>
<path d="M610.22 117.74L604.36 128.07L604.3 128.19L610.22 138.68H615.16L609.21 128.19L615.16 117.74H610.22Z" fill="#676B6F"/>
<path d="M634.55 117.74H630.04V138.72H634.55V117.74Z" fill="#676B6F"/>
<path d="M636.84 117.74H636.29V122.25H636.9C640.16 122.28 642.82 124.96 642.82 128.23C642.82 131.5 640.17 134.18 636.93 134.21H636.32V138.72H636.87C642.66 138.72 647.36 134.02 647.36 128.23C647.36 122.44 642.63 117.74 636.84 117.74Z" fill="#676B6F"/>
<path d="M582.74 117.74H578.23V138.72H582.74V117.74Z" fill="#676B6F"/>
<path d="M585.06 117.74H584.51V122.25H585.12C588.38 122.28 591.04 124.96 591.04 128.23C591.04 131.5 588.39 134.18 585.12 134.21H584.51V138.72H585.06C590.85 138.72 595.55 134.02 595.55 128.23C595.55 122.44 590.85 117.74 585.06 117.74Z" fill="#676B6F"/>
<path d="M657.19 117.03C653.5 117.03 650.48 120.05 650.48 123.74C650.48 127.06 652.86 129.84 656.12 130.36L656.33 130.42V125.82L656.3 125.79L656.24 125.73C655.48 125.36 654.99 124.6 654.99 123.75C654.99 122.53 655.97 121.55 657.19 121.55C658.41 121.55 659.39 122.53 659.39 123.75V123.96H663.9V123.75C663.93 120.03 660.91 117.04 657.19 117.04" fill="#676B6F"/>
<path d="M658.25 125.85H658.04V130.45L658.16 130.51C658.92 130.88 659.41 131.67 659.41 132.49C659.41 133.71 658.4 134.69 657.21 134.69C656.02 134.69 655.01 133.71 655.01 132.49V132.28H650.5V132.49C650.5 136.18 653.52 139.2 657.21 139.2C660.9 139.2 663.95 136.18 663.95 132.49C663.92 129.17 661.54 126.39 658.25 125.84" fill="#676B6F"/>
<path d="M572.06 111.15H567.55V115.66H572.06V111.15Z" fill="#676B6F"/>
<path d="M202.04 84.2001L232.29 49.9301H211.46L191.61 72.4101L171.21 50.0601L171.08 49.9301H150.25L181.2 84.2001L150.38 117.96H171.23L191.62 95.9901L212.01 117.96H232.85L202.04 84.2001Z" fill="#676B6F"/>
<path d="M442.74 49.9301V87.0001C442.72 96.1601 434.74 103.62 424.93 103.62C415.12 103.62 407.06 96.1701 407.03 87.0001V49.9301H391.31V87.0001C391.31 104.82 406.4 119.31 424.93 119.31C443.46 119.31 458.5 104.82 458.5 87.0001V49.9301H442.74Z" fill="#676B6F"/>
<path d="M469.28 17.8901V111.95C469.38 116.38 472.85 119.85 477.15 119.85C481.45 119.85 485.04 116.3 485.04 111.94V17.8901H469.28Z" fill="#676B6F"/>
<path d="M348.58 49.0801C341.78 49.0801 334.93 51.1701 329.21 55.0001V17.8901H313.37V84.1402C313.37 103.53 329.17 119.31 348.58 119.31C367.99 119.31 383.67 103.53 383.67 84.1402C383.67 64.7502 367.93 49.0801 348.58 49.0801ZM367.95 84.2501C367.9 94.8901 359.22 103.58 348.58 103.62C337.91 103.58 329.22 94.8901 329.2 84.2501C329.21 73.6101 337.9 64.8801 348.57 64.7901C359.21 64.8901 367.9 73.6201 367.94 84.2501" fill="#676B6F"/>
<path d="M288.84 49.9301V86.8001C288.78 95.9101 280.79 103.31 271.05 103.31C261.31 103.31 253.33 95.9102 253.26 86.8202V49.9301H237.61V86.8202C237.61 104.52 252.61 118.92 271.04 118.92C277.37 118.92 283.5 117.21 288.83 113.98V123.49C288.79 134.06 280.13 142.71 269.51 142.76H269.1L269.12 158.35H269.53C288.8 158.35 304.49 142.67 304.49 123.4V49.9102H288.83L288.84 49.9301Z" fill="#676B6F"/>
<path d="M81.88 14.8501C43.24 14.8501 11.95 46.1501 11.95 84.8001C11.95 123.45 43.23 154.73 81.88 154.73C120.53 154.73 151.83 123.43 151.83 84.8001C151.83 46.1701 120.47 14.8501 81.88 14.8501Z" fill="#676B6F"/>
<path d="M35.69 54.3102L73.74 76.1002C76.32 77.5902 79.06 78.3402 81.88 78.3402C84.7 78.3402 87.49 77.5702 90.02 76.1102L128.07 54.3102L89.77 32.4602L89.75 32.4002C88.91 31.8802 85.84 30.1702 81.88 30.1702C77.56 30.1702 74.36 32.1702 73.86 32.5002C73.76 32.5902 73.67 32.6402 73.62 32.6702L35.7 54.3102H35.69Z" fill="#FF0045"/>
<path d="M31.12 62.3901V102.79C31.07 104.43 31.26 112.46 39.51 117.12L77.04 138.61V88.4101C76.68 88.2501 76.31 88.0501 75.93 87.8101L31.12 62.3901Z" fill="#00A12F"/>
<path d="M86.76 88.4001V138.62L124.23 117.13C132.23 112.62 132.7 105.09 132.66 102.88V62.3901L87.8 87.8401C87.48 88.0301 87.14 88.2201 86.77 88.3901" fill="#FFDD00"/>
<path d="M326.53 136.02L325.62 134.17L318.15 138.4L319.01 140.06L326.53 136.02Z" fill="#676B6F"/>
<path d="M330.77 150.77C331.02 148.11 330.07 145.43 328.18 143.59C326.6 142.07 324.44 141.24 322.09 141.24C317.18 141.24 313.33 145.11 313.33 150.06C313.33 154.3 316.41 158.82 322.12 158.82C323.83 158.82 325.47 158.35 326.85 157.46C328.31 156.54 329.54 154.99 330.29 153.26H327.71C326.65 155.38 324.56 156.65 322.09 156.65C318.2 156.65 315.95 153.64 315.81 150.77H330.78H330.77ZM315.84 148.76C316.12 145.73 318.85 143.38 322.12 143.38C324.86 143.3 328.09 145.52 328.33 148.76H315.84Z" fill="#676B6F"/>
<path d="M333.83 141.7H331.22L337.78 158.36H340.28L346.84 141.7H344.23L339.05 155.18L333.83 141.7Z" fill="#676B6F"/>
<path d="M369.96 141.7H367.48V158.36H369.96V141.7Z" fill="#676B6F"/>
<path d="M369.96 135.53H367.48V138.89H369.96V135.53Z" fill="#676B6F"/>
<path d="M425.92 162.67V164.79C425.92 164.79 426.47 164.79 426.74 164.75C431.06 164.26 431.42 161.15 431.42 158.01V141.7H428.95V158.07C428.95 160.42 428.77 162.26 426.43 162.64C426.32 162.67 426.06 162.67 425.92 162.67Z" fill="#676B6F"/>
<path d="M431.41 135.53H428.94V138.89H431.41V135.53Z" fill="#676B6F"/>
<path d="M460.65 158.82C463.34 158.82 465.55 157.69 466.58 155.79V158.37H468.93V141.71H466.46V151.11C466.46 154.51 464.5 156.48 461.15 156.51C458.82 156.51 456 155.51 456 150.72V141.72H453.56V151.15C453.56 157.73 458.02 158.79 460.65 158.84" fill="#676B6F"/>
<path d="M479.86 149.82L485.41 141.7H482.46L478.36 147.94L474.29 141.7H471.28L476.85 149.82L471.04 158.36H474.04L478.36 151.81L482.7 158.36H485.71L479.86 149.82Z" fill="#676B6F"/>
<path d="M379.64 156.5C379.5 156.5 379.24 156.5 379.12 156.47C376.8 156.08 376.61 154.25 376.61 151.9V135.53H374.14V151.84C374.14 154.98 374.5 158.09 378.83 158.58C379.07 158.62 379.64 158.63 379.64 158.63V156.51V156.5Z" fill="#676B6F"/>
<path d="M415.32 156.5C415.18 156.5 414.92 156.5 414.8 156.47C412.48 156.08 412.29 154.25 412.29 151.9V143.72H415.87V141.7H412.29V135.53H409.81V141.7H407.85V143.72H409.81V151.84C409.81 154.98 410.17 158.09 414.5 158.58C414.75 158.62 415.31 158.63 415.31 158.63V156.51" fill="#676B6F"/>
<path d="M364.48 150.78C364.73 148.12 363.79 145.44 361.89 143.61C360.31 142.09 358.14 141.26 355.8 141.26C350.89 141.26 347.04 145.13 347.04 150.08C347.04 154.32 350.12 158.84 355.83 158.84C357.55 158.84 359.18 158.37 360.56 157.48C362.02 156.56 363.25 155.01 364 153.28H361.42C360.36 155.4 358.27 156.67 355.8 156.67C351.9 156.67 349.66 153.66 349.52 150.79H364.49L364.48 150.78ZM349.55 148.77C349.83 145.74 352.56 143.39 355.83 143.39C358.57 143.31 361.8 145.53 362.04 148.77H349.55Z" fill="#676B6F"/>
<path d="M407.21 150.78C407.46 148.12 406.52 145.44 404.62 143.61C403.04 142.09 400.88 141.26 398.52 141.26C393.61 141.26 389.77 145.13 389.77 150.08C389.77 154.32 392.85 158.84 398.56 158.84C400.27 158.84 401.91 158.37 403.29 157.48C404.75 156.56 405.98 155.01 406.73 153.28H404.15C403.09 155.4 401 156.67 398.53 156.67C394.64 156.67 392.39 153.66 392.25 150.79H407.22L407.21 150.78ZM392.28 148.77C392.56 145.74 395.29 143.39 398.56 143.39C401.3 143.31 404.53 145.53 404.77 148.77H392.28Z" fill="#676B6F"/>
<path d="M451.18 150.77C451.43 148.11 450.49 145.43 448.59 143.59C447.01 142.07 444.85 141.24 442.5 141.24C437.59 141.24 433.74 145.11 433.74 150.06C433.74 154.3 436.82 158.82 442.53 158.82C444.25 158.82 445.88 158.35 447.26 157.46C448.72 156.54 449.95 154.99 450.69 153.26H448.11C447.05 155.38 444.96 156.65 442.49 156.65C438.6 156.65 436.35 153.64 436.21 150.77H451.18ZM436.25 148.76C436.53 145.73 439.26 143.38 442.53 143.38C445.27 143.3 448.5 145.52 448.74 148.76H436.25Z" fill="#676B6F"/>
</svg>
